<svg width="166" height="17" viewBox="0 0 166 17" fill="none" xmlns="http://www.w3.org/2000/svg">
<path d="M5.888 13C5.54667 13 5.296 12.824 5.136 12.472L0.448 1.752C0.298667 1.38933 0.282667 1.09067 0.4 0.855999C0.517333 0.621333 0.741333 0.504 1.072 0.504C1.44533 0.504 1.70133 0.669333 1.84 0.999999L5.952 10.872H5.776L9.968 0.999999C10.0533 0.808 10.1493 0.68 10.256 0.615999C10.3733 0.541333 10.528 0.504 10.72 0.504C11.04 0.504 11.2587 0.621333 11.376 0.855999C11.504 1.08 11.504 1.33067 11.376 1.608L6.64 12.472C6.56533 12.6427 6.464 12.776 6.336 12.872C6.21867 12.9573 6.06933 13 5.888 13ZM15.5833 13.064C14.6979 13.064 13.9086 12.8773 13.2153 12.504C12.5326 12.12 11.9939 11.5973 11.5993 10.936C11.2153 10.264 11.0233 9.496 11.0233 8.632C11.0233 7.75733 11.2046 6.98933 11.5673 6.328C11.9406 5.656 12.4526 5.13333 13.1033 4.76C13.7539 4.376 14.5006 4.184 15.3433 4.184C16.1753 4.184 16.8899 4.37067 17.4873 4.744C18.0846 5.10667 18.5379 5.61333 18.8472 6.264C19.1673 6.904 19.3273 7.64533 19.3273 8.488C19.3273 8.69067 19.2579 8.86133 19.1193 9C18.9806 9.128 18.8046 9.192 18.5913 9.192H12.1432V7.912H18.5433L17.8873 8.36C17.8766 7.82667 17.7699 7.352 17.5673 6.936C17.3646 6.50933 17.0766 6.17333 16.7033 5.928C16.3299 5.68267 15.8766 5.56 15.3433 5.56C14.7353 5.56 14.2126 5.69333 13.7753 5.96C13.3486 6.22667 13.0233 6.59467 12.7993 7.064C12.5753 7.52267 12.4633 8.04533 12.4633 8.632C12.4633 9.21867 12.5966 9.74133 12.8633 10.2C13.1299 10.6587 13.4979 11.0213 13.9673 11.288C14.4366 11.5547 14.9753 11.688 15.5833 11.688C15.9139 11.688 16.2499 11.6293 16.5913 11.512C16.9433 11.384 17.2259 11.24 17.4393 11.08C17.5993 10.9627 17.7699 10.904 17.9513 10.904C18.1433 10.8933 18.3086 10.9467 18.4473 11.064C18.6286 11.224 18.7246 11.4 18.7353 11.592C18.7459 11.784 18.6606 11.9493 18.4792 12.088C18.1166 12.376 17.6633 12.6107 17.1193 12.792C16.5859 12.9733 16.0739 13.064 15.5833 13.064ZM22.1928 7.528C22.1928 6.888 22.3474 6.31733 22.6568 5.816C22.9768 5.304 23.4034 4.89867 23.9368 4.6C24.4701 4.30133 25.0568 4.152 25.6968 4.152C26.3368 4.152 26.8114 4.25867 27.1208 4.472C27.4408 4.67467 27.5634 4.92 27.4888 5.208C27.4568 5.35733 27.3928 5.47467 27.2968 5.56C27.2114 5.63467 27.1101 5.68267 26.9928 5.704C26.8754 5.72533 26.7474 5.72 26.6088 5.688C25.9261 5.54933 25.3128 5.53867 24.7688 5.656C24.2248 5.77333 23.7928 5.992 23.4728 6.312C23.1634 6.632 23.0088 7.03733 23.0088 7.528H22.1928ZM22.2088 13C21.9528 13 21.7554 12.936 21.6168 12.808C21.4781 12.6693 21.4088 12.4667 21.4088 12.2V5.048C21.4088 4.792 21.4781 4.59467 21.6168 4.456C21.7554 4.31733 21.9528 4.248 22.2088 4.248C22.4754 4.248 22.6728 4.31733 22.8008 4.456C22.9394 4.584 23.0088 4.78133 23.0088 5.048V12.2C23.0088 12.456 22.9394 12.6533 22.8008 12.792C22.6728 12.9307 22.4754 13 22.2088 13ZM30.166 13C29.9313 13 29.734 12.9253 29.574 12.776C29.4247 12.616 29.35 12.4187 29.35 12.184V5.064C29.35 4.81867 29.4247 4.62133 29.574 4.472C29.734 4.32267 29.9313 4.248 30.166 4.248C30.4113 4.248 30.6087 4.32267 30.758 4.472C30.9073 4.62133 30.982 4.81867 30.982 5.064V12.184C30.982 12.4187 30.9073 12.616 30.758 12.776C30.6087 12.9253 30.4113 13 30.166 13ZM30.166 2.824C29.878 2.824 29.6273 2.72267 29.414 2.52C29.2113 2.30667 29.11 2.056 29.11 1.768C29.11 1.48 29.2113 1.23467 29.414 1.032C29.6273 0.818666 29.878 0.712 30.166 0.712C30.454 0.712 30.6993 0.818666 30.902 1.032C31.1153 1.23467 31.222 1.48 31.222 1.768C31.222 2.056 31.1153 2.30667 30.902 2.52C30.6993 2.72267 30.454 2.824 30.166 2.824ZM34.9621 13C34.7595 13 34.5781 12.9253 34.4181 12.776C34.2581 12.6267 34.1781 12.4293 34.1781 12.184V4.296C34.1781 3.528 34.3275 2.86133 34.6261 2.296C34.9355 1.73067 35.3621 1.29333 35.9061 0.983999C36.4501 0.664 37.0795 0.504 37.7941 0.504C38.0288 0.504 38.2208 0.573333 38.3701 0.712C38.5301 0.850666 38.6101 1.02667 38.6101 1.24C38.6101 1.44267 38.5301 1.61867 38.3701 1.768C38.2208 1.90667 38.0288 1.976 37.7941 1.976C37.3995 1.976 37.0528 2.06667 36.7541 2.248C36.4555 2.42933 36.2208 2.68 36.0501 3C35.8901 3.32 35.8101 3.69867 35.8101 4.136V12.184C35.8101 12.4293 35.7355 12.6267 35.5861 12.776C35.4368 12.9253 35.2288 13 34.9621 13ZM33.4901 5.944C33.2661 5.944 33.0848 5.88 32.9461 5.752C32.8075 5.624 32.7381 5.464 32.7381 5.272C32.7381 5.05867 32.8075 4.888 32.9461 4.76C33.0848 4.632 33.2661 4.568 33.4901 4.568H37.4421C37.6661 4.568 37.8475 4.632 37.9861 4.76C38.1248 4.888 38.1941 5.05867 38.1941 5.272C38.1941 5.464 38.1248 5.624 37.9861 5.752C37.8475 5.88 37.6661 5.944 37.4421 5.944H33.4901ZM41.4611 16.84C41.3545 16.84 41.2265 16.808 41.0771 16.744C40.6078 16.5307 40.4798 16.1947 40.6931 15.736L45.5731 4.712C45.7865 4.264 46.1225 4.136 46.5811 4.328C47.0611 4.53067 47.1945 4.86667 46.9811 5.336L42.0851 16.344C41.9571 16.6747 41.7491 16.84 41.4611 16.84ZM43.3491 12.648C43.1465 12.7333 42.9545 12.744 42.7731 12.68C42.6025 12.6053 42.4638 12.4667 42.3571 12.264L38.6931 5.304C38.5865 5.10133 38.5705 4.90933 38.6451 4.728C38.7305 4.536 38.8745 4.39733 39.0771 4.312C39.2798 4.22667 39.4718 4.22133 39.6531 4.296C39.8345 4.36 39.9731 4.49333 40.0691 4.696L43.5731 11.656C43.6798 11.8587 43.7171 12.056 43.6851 12.248C43.6638 12.4293 43.5518 12.5627 43.3491 12.648ZM56.3896 13C55.8563 13 55.3763 12.8667 54.9496 12.6C54.523 12.3227 54.187 11.9493 53.9416 11.48C53.6963 11.0107 53.5736 10.4827 53.5736 9.896V2.264C53.5736 2.02933 53.6483 1.83733 53.7976 1.688C53.947 1.53867 54.139 1.464 54.3736 1.464C54.6083 1.464 54.8003 1.53867 54.9496 1.688C55.099 1.83733 55.1736 2.02933 55.1736 2.264V9.896C55.1736 10.3227 55.291 10.68 55.5256 10.968C55.7603 11.256 56.0483 11.4 56.3896 11.4H56.9336C57.1256 11.4 57.2856 11.4747 57.4136 11.624C57.5523 11.7733 57.6216 11.9653 57.6216 12.2C57.6216 12.4347 57.531 12.6267 57.3496 12.776C57.179 12.9253 56.955 13 56.6776 13H56.3896ZM52.8376 5.944C52.6136 5.944 52.4323 5.88 52.2936 5.752C52.155 5.624 52.0856 5.464 52.0856 5.272C52.0856 5.05867 52.155 4.888 52.2936 4.76C52.4323 4.632 52.6136 4.568 52.8376 4.568H56.5336C56.7576 4.568 56.939 4.632 57.0776 4.76C57.2163 4.888 57.2856 5.05867 57.2856 5.272C57.2856 5.464 57.2163 5.624 57.0776 5.752C56.939 5.88 56.7576 5.944 56.5336 5.944H52.8376ZM63.5955 13.064C62.7315 13.064 61.9688 12.8773 61.3075 12.504C60.6462 12.12 60.1235 11.5973 59.7395 10.936C59.3662 10.264 59.1795 9.496 59.1795 8.632C59.1795 7.75733 59.3662 6.98933 59.7395 6.328C60.1235 5.656 60.6462 5.13333 61.3075 4.76C61.9688 4.376 62.7315 4.184 63.5955 4.184C64.4488 4.184 65.2062 4.376 65.8675 4.76C66.5288 5.13333 67.0462 5.656 67.4195 6.328C67.8035 6.98933 67.9955 7.75733 67.9955 8.632C67.9955 9.496 67.8088 10.264 67.4355 10.936C67.0622 11.5973 66.5448 12.12 65.8835 12.504C65.2222 12.8773 64.4595 13.064 63.5955 13.064ZM63.5955 11.624C64.1502 11.624 64.6408 11.496 65.0675 11.24C65.4942 10.984 65.8248 10.632 66.0595 10.184C66.3048 9.736 66.4275 9.21867 66.4275 8.632C66.4275 8.04533 66.3048 7.528 66.0595 7.08C65.8248 6.62133 65.4942 6.264 65.0675 6.008C64.6408 5.752 64.1502 5.624 63.5955 5.624C63.0408 5.624 62.5502 5.752 62.1235 6.008C61.6968 6.264 61.3608 6.62133 61.1155 7.08C60.8702 7.528 60.7475 8.04533 60.7475 8.632C60.7475 9.21867 60.8702 9.736 61.1155 10.184C61.3608 10.632 61.6968 10.984 62.1235 11.24C62.5502 11.496 63.0408 11.624 63.5955 11.624ZM79.0799 13.064C78.2265 13.064 77.4639 12.872 76.7919 12.488C76.1305 12.0933 75.6079 11.5653 75.2239 10.904C74.8505 10.232 74.6639 9.47467 74.6639 8.632C74.6639 7.768 74.8505 7 75.2239 6.328C75.5972 5.656 76.1092 5.13333 76.7599 4.76C77.4105 4.376 78.1572 4.184 78.9999 4.184C79.6292 4.184 80.2052 4.30667 80.7279 4.552C81.2505 4.78667 81.7199 5.144 82.1359 5.624C82.2852 5.79467 82.3385 5.97067 82.2959 6.152C82.2532 6.33333 82.1359 6.49333 81.9439 6.632C81.7945 6.73867 81.6292 6.776 81.4479 6.744C81.2665 6.70133 81.1012 6.60533 80.9519 6.456C80.4292 5.90133 79.7785 5.624 78.9999 5.624C78.4559 5.624 77.9759 5.752 77.5599 6.008C77.1439 6.25333 76.8185 6.6 76.5839 7.048C76.3492 7.496 76.2319 8.024 76.2319 8.632C76.2319 9.208 76.3492 9.72 76.5839 10.168C76.8292 10.616 77.1652 10.9733 77.5919 11.24C78.0185 11.496 78.5145 11.624 79.0799 11.624C79.4532 11.624 79.7785 11.5813 80.0559 11.496C80.3439 11.4 80.6052 11.256 80.8399 11.064C81.0105 10.9253 81.1865 10.8507 81.3679 10.84C81.5492 10.8187 81.7092 10.8667 81.8479 10.984C82.0292 11.1333 82.1305 11.304 82.1519 11.496C82.1732 11.6773 82.1092 11.8427 81.9599 11.992C81.1919 12.7067 80.2319 13.064 79.0799 13.064ZM88.6893 13.064C87.8253 13.064 87.0626 12.8773 86.4013 12.504C85.7399 12.12 85.2173 11.5973 84.8333 10.936C84.4599 10.264 84.2733 9.496 84.2733 8.632C84.2733 7.75733 84.4599 6.98933 84.8333 6.328C85.2173 5.656 85.7399 5.13333 86.4013 4.76C87.0626 4.376 87.8253 4.184 88.6893 4.184C89.5426 4.184 90.2999 4.376 90.9613 4.76C91.6226 5.13333 92.1399 5.656 92.5133 6.328C92.8973 6.98933 93.0893 7.75733 93.0893 8.632C93.0893 9.496 92.9026 10.264 92.5293 10.936C92.1559 11.5973 91.6386 12.12 90.9773 12.504C90.3159 12.8773 89.5533 13.064 88.6893 13.064ZM88.6893 11.624C89.2439 11.624 89.7346 11.496 90.1613 11.24C90.5879 10.984 90.9186 10.632 91.1533 10.184C91.3986 9.736 91.5213 9.21867 91.5213 8.632C91.5213 8.04533 91.3986 7.528 91.1533 7.08C90.9186 6.62133 90.5879 6.264 90.1613 6.008C89.7346 5.752 89.2439 5.624 88.6893 5.624C88.1346 5.624 87.6439 5.752 87.2173 6.008C86.7906 6.264 86.4546 6.62133 86.2093 7.08C85.9639 7.528 85.8413 8.04533 85.8413 8.632C85.8413 9.21867 85.9639 9.736 86.2093 10.184C86.4546 10.632 86.7906 10.984 87.2173 11.24C87.6439 11.496 88.1346 11.624 88.6893 11.624ZM102.91 13.016C102.675 13.016 102.478 12.9413 102.318 12.792C102.169 12.632 102.094 12.4347 102.094 12.2V8.264C102.094 7.656 101.982 7.16 101.758 6.776C101.534 6.392 101.23 6.10933 100.846 5.928C100.473 5.736 100.041 5.64 99.5501 5.64C99.1021 5.64 98.6968 5.73067 98.3341 5.912C97.9715 6.09333 97.6835 6.33867 97.4701 6.648C97.2568 6.94667 97.1501 7.29333 97.1501 7.688H96.1421C96.1421 7.016 96.3021 6.41867 96.6221 5.896C96.9528 5.36267 97.4008 4.94133 97.9661 4.632C98.5315 4.32267 99.1661 4.168 99.8701 4.168C100.606 4.168 101.262 4.328 101.838 4.648C102.425 4.95733 102.883 5.416 103.214 6.024C103.555 6.632 103.726 7.37867 103.726 8.264V12.2C103.726 12.4347 103.646 12.632 103.486 12.792C103.337 12.9413 103.145 13.016 102.91 13.016ZM96.3341 13.016C96.0995 13.016 95.9021 12.9413 95.7421 12.792C95.5928 12.632 95.5181 12.4347 95.5181 12.2V5.064C95.5181 4.81867 95.5928 4.62133 95.7421 4.472C95.9021 4.32267 96.0995 4.248 96.3341 4.248C96.5795 4.248 96.7768 4.32267 96.9261 4.472C97.0755 4.62133 97.1501 4.81867 97.1501 5.064V12.2C97.1501 12.4347 97.0755 12.632 96.9261 12.792C96.7768 12.9413 96.5795 13.016 96.3341 13.016ZM109.608 13C109.075 13 108.595 12.8667 108.168 12.6C107.742 12.3227 107.406 11.9493 107.16 11.48C106.915 11.0107 106.792 10.4827 106.792 9.896V2.264C106.792 2.02933 106.867 1.83733 107.016 1.688C107.166 1.53867 107.358 1.464 107.592 1.464C107.827 1.464 108.019 1.53867 108.168 1.688C108.318 1.83733 108.392 2.02933 108.392 2.264V9.896C108.392 10.3227 108.51 10.68 108.744 10.968C108.979 11.256 109.267 11.4 109.608 11.4H110.152C110.344 11.4 110.504 11.4747 110.632 11.624C110.771 11.7733 110.84 11.9653 110.84 12.2C110.84 12.4347 110.75 12.6267 110.568 12.776C110.398 12.9253 110.174 13 109.896 13H109.608ZM106.056 5.944C105.832 5.944 105.651 5.88 105.512 5.752C105.374 5.624 105.304 5.464 105.304 5.272C105.304 5.05867 105.374 4.888 105.512 4.76C105.651 4.632 105.832 4.568 106.056 4.568H109.752C109.976 4.568 110.158 4.632 110.296 4.76C110.435 4.888 110.504 5.05867 110.504 5.272C110.504 5.464 110.435 5.624 110.296 5.752C110.158 5.88 109.976 5.944 109.752 5.944H106.056ZM113.63 7.528C113.63 6.888 113.785 6.31733 114.094 5.816C114.414 5.304 114.841 4.89867 115.374 4.6C115.908 4.30133 116.494 4.152 117.134 4.152C117.774 4.152 118.249 4.25867 118.558 4.472C118.878 4.67467 119.001 4.92 118.926 5.208C118.894 5.35733 118.83 5.47467 118.734 5.56C118.649 5.63467 118.548 5.68267 118.43 5.704C118.313 5.72533 118.185 5.72 118.046 5.688C117.364 5.54933 116.75 5.53867 116.206 5.656C115.662 5.77333 115.23 5.992 114.91 6.312C114.601 6.632 114.446 7.03733 114.446 7.528H113.63ZM113.646 13C113.39 13 113.193 12.936 113.054 12.808C112.916 12.6693 112.846 12.4667 112.846 12.2V5.048C112.846 4.792 112.916 4.59467 113.054 4.456C113.193 4.31733 113.39 4.248 113.646 4.248C113.913 4.248 114.11 4.31733 114.238 4.456C114.377 4.584 114.446 4.78133 114.446 5.048V12.2C114.446 12.456 114.377 12.6533 114.238 12.792C114.11 12.9307 113.913 13 113.646 13ZM121.604 13C121.369 13 121.172 12.9253 121.012 12.776C120.862 12.616 120.788 12.4187 120.788 12.184V5.064C120.788 4.81867 120.862 4.62133 121.012 4.472C121.172 4.32267 121.369 4.248 121.604 4.248C121.849 4.248 122.046 4.32267 122.196 4.472C122.345 4.62133 122.42 4.81867 122.42 5.064V12.184C122.42 12.4187 122.345 12.616 122.196 12.776C122.046 12.9253 121.849 13 121.604 13ZM121.604 2.824C121.316 2.824 121.065 2.72267 120.852 2.52C120.649 2.30667 120.548 2.056 120.548 1.768C120.548 1.48 120.649 1.23467 120.852 1.032C121.065 0.818666 121.316 0.712 121.604 0.712C121.892 0.712 122.137 0.818666 122.34 1.032C122.553 1.23467 122.66 1.48 122.66 1.768C122.66 2.056 122.553 2.30667 122.34 2.52C122.137 2.72267 121.892 2.824 121.604 2.824ZM129.856 13.064C129.024 13.064 128.277 12.872 127.616 12.488C126.954 12.0933 126.432 11.56 126.048 10.888C125.664 10.216 125.466 9.45867 125.456 8.616V1.32C125.456 1.07467 125.53 0.877333 125.68 0.728C125.84 0.578666 126.037 0.504 126.272 0.504C126.517 0.504 126.714 0.578666 126.864 0.728C127.013 0.877333 127.088 1.07467 127.088 1.32V5.64C127.461 5.192 127.909 4.84 128.432 4.584C128.965 4.31733 129.546 4.184 130.176 4.184C130.954 4.184 131.653 4.38133 132.272 4.776C132.89 5.16 133.376 5.688 133.728 6.36C134.09 7.02133 134.272 7.77333 134.272 8.616C134.272 9.45867 134.074 10.216 133.68 10.888C133.296 11.56 132.773 12.0933 132.112 12.488C131.45 12.872 130.698 13.064 129.856 13.064ZM129.856 11.624C130.4 11.624 130.885 11.496 131.312 11.24C131.738 10.9733 132.074 10.6107 132.32 10.152C132.576 9.69333 132.704 9.18133 132.704 8.616C132.704 8.04 132.576 7.528 132.32 7.08C132.074 6.632 131.738 6.28 131.312 6.024C130.885 5.75733 130.4 5.624 129.856 5.624C129.322 5.624 128.837 5.75733 128.4 6.024C127.973 6.28 127.637 6.632 127.392 7.08C127.146 7.528 127.024 8.04 127.024 8.616C127.024 9.18133 127.146 9.69333 127.392 10.152C127.637 10.6107 127.973 10.9733 128.4 11.24C128.837 11.496 129.322 11.624 129.856 11.624ZM140.386 13.08C139.65 13.08 138.988 12.9253 138.402 12.616C137.826 12.296 137.367 11.832 137.026 11.224C136.695 10.616 136.53 9.86933 136.53 8.984V5.048C136.53 4.81333 136.604 4.62133 136.754 4.472C136.914 4.312 137.111 4.232 137.346 4.232C137.58 4.232 137.772 4.312 137.922 4.472C138.082 4.62133 138.162 4.81333 138.162 5.048V8.984C138.162 9.58133 138.274 10.0773 138.498 10.472C138.722 10.856 139.026 11.144 139.41 11.336C139.794 11.5173 140.226 11.608 140.706 11.608C141.164 11.608 141.57 11.5173 141.922 11.336C142.284 11.1547 142.572 10.9093 142.786 10.6C142.999 10.2907 143.106 9.944 143.106 9.56H144.114C144.114 10.2213 143.948 10.8187 143.618 11.352C143.298 11.8853 142.855 12.3067 142.29 12.616C141.735 12.9253 141.1 13.08 140.386 13.08ZM143.922 13C143.687 13 143.49 12.9253 143.33 12.776C143.18 12.616 143.106 12.4187 143.106 12.184V5.048C143.106 4.80267 143.18 4.60533 143.33 4.456C143.49 4.30667 143.687 4.232 143.922 4.232C144.167 4.232 144.364 4.30667 144.514 4.456C144.663 4.60533 144.738 4.80267 144.738 5.048V12.184C144.738 12.4187 144.663 12.616 144.514 12.776C144.364 12.9253 144.167 13 143.922 13ZM150.796 13C150.263 13 149.783 12.8667 149.356 12.6C148.929 12.3227 148.593 11.9493 148.348 11.48C148.103 11.0107 147.98 10.4827 147.98 9.896V2.264C147.98 2.02933 148.055 1.83733 148.204 1.688C148.353 1.53867 148.545 1.464 148.78 1.464C149.015 1.464 149.207 1.53867 149.356 1.688C149.505 1.83733 149.58 2.02933 149.58 2.264V9.896C149.58 10.3227 149.697 10.68 149.932 10.968C150.167 11.256 150.455 11.4 150.796 11.4H151.34C151.532 11.4 151.692 11.4747 151.82 11.624C151.959 11.7733 152.028 11.9653 152.028 12.2C152.028 12.4347 151.937 12.6267 151.756 12.776C151.585 12.9253 151.361 13 151.084 13H150.796ZM147.244 5.944C147.02 5.944 146.839 5.88 146.7 5.752C146.561 5.624 146.492 5.464 146.492 5.272C146.492 5.05867 146.561 4.888 146.7 4.76C146.839 4.632 147.02 4.568 147.244 4.568H150.94C151.164 4.568 151.345 4.632 151.484 4.76C151.623 4.888 151.692 5.05867 151.692 5.272C151.692 5.464 151.623 5.624 151.484 5.752C151.345 5.88 151.164 5.944 150.94 5.944H147.244ZM158.146 13.064C157.26 13.064 156.471 12.8773 155.778 12.504C155.095 12.12 154.556 11.5973 154.162 10.936C153.778 10.264 153.586 9.496 153.586 8.632C153.586 7.75733 153.767 6.98933 154.13 6.328C154.503 5.656 155.015 5.13333 155.666 4.76C156.316 4.376 157.063 4.184 157.906 4.184C158.738 4.184 159.452 4.37067 160.05 4.744C160.647 5.10667 161.1 5.61333 161.41 6.264C161.73 6.904 161.89 7.64533 161.89 8.488C161.89 8.69067 161.82 8.86133 161.682 9C161.543 9.128 161.367 9.192 161.154 9.192H154.706V7.912H161.106L160.45 8.36C160.439 7.82667 160.332 7.352 160.13 6.936C159.927 6.50933 159.639 6.17333 159.266 5.928C158.892 5.68267 158.439 5.56 157.906 5.56C157.298 5.56 156.775 5.69333 156.338 5.96C155.911 6.22667 155.586 6.59467 155.362 7.064C155.138 7.52267 155.026 8.04533 155.026 8.632C155.026 9.21867 155.159 9.74133 155.426 10.2C155.692 10.6587 156.06 11.0213 156.53 11.288C156.999 11.5547 157.538 11.688 158.146 11.688C158.476 11.688 158.812 11.6293 159.154 11.512C159.506 11.384 159.788 11.24 160.002 11.08C160.162 10.9627 160.332 10.904 160.514 10.904C160.706 10.8933 160.871 10.9467 161.01 11.064C161.191 11.224 161.287 11.4 161.298 11.592C161.308 11.784 161.223 11.9493 161.042 12.088C160.679 12.376 160.226 12.6107 159.682 12.792C159.148 12.9733 158.636 13.064 158.146 13.064ZM164.435 10.04C164.201 10.04 164.003 9.96 163.843 9.8C163.694 9.62933 163.619 9.43733 163.619 9.224V1.336C163.619 1.10133 163.694 0.903999 163.843 0.743999C164.003 0.584 164.201 0.504 164.435 0.504C164.67 0.504 164.862 0.584 165.011 0.743999C165.171 0.903999 165.251 1.10133 165.251 1.336V9.224C165.251 9.448 165.166 9.64 164.995 9.8C164.835 9.96 164.649 10.04 164.435 10.04ZM164.435 13C164.137 13 163.875 12.8933 163.651 12.68C163.438 12.4667 163.331 12.2053 163.331 11.896C163.331 11.5867 163.438 11.3253 163.651 11.112C163.875 10.888 164.137 10.776 164.435 10.776C164.745 10.776 165.006 10.888 165.219 11.112C165.433 11.3253 165.539 11.5867 165.539 11.896C165.539 12.2053 165.427 12.4667 165.203 12.68C164.99 12.8933 164.734 13 164.435 13Z" fill="black"/>
</svg>
